<svg id="BACKGROUND" xmlns="http://www.w3.org/2000/svg" viewBox="0 0 203.1 103.03"><defs><style>.cls-1{font-size:12.66px;}.cls-1,.cls-2,.cls-4,.cls-5,.cls-6{fill:#1f4069;}.cls-1,.cls-5,.cls-6{font-family:MyriadPro-Regular, Myriad Pro;}.cls-2{font-size:58.87px;font-family:AvenirNextLTPro-Regular, Avenir Next LT Pro;}.cls-3{letter-spacing:-0.02em;}.cls-5{font-size:8.85px;}.cls-6{font-size:5.63px;}.cls-7{letter-spacing:-0.01em;}.cls-8{letter-spacing:0em;}.cls-9{letter-spacing:-0.01em;}</style></defs><text/><text class="cls-1" transform="translate(39.5 45.58)">acm</text><text class="cls-2" transform="translate(104.18 63.52)">E<tspan class="cls-3" x="34.85" y="0">T</tspan></text><path class="cls-4" d="M91.93,63.43v.09l13.38-13.38H99.86L92,58,84.05,50.1H78.6Z"/><path class="cls-4" d="M71.14,42.64h-.08L84.44,29.26v5.45l-7.89,7.88,7.93,7.93V56Z"/><path class="cls-4" d="M91.93,21.77v-.09l13.38,13.38H99.86L92,27.18l-7.93,7.93H78.6Z"/><path class="cls-4" d="M50.75,63.45v.08L64.13,50.15H58.67L50.79,58l-7.93-7.93H37.41Z"/><path class="cls-4" d="M30,42.65h-.08L43.25,29.27v5.45l-7.89,7.89,7.93,7.92V56Z"/><path class="cls-4" d="M50.75,21.78V21.7L64.13,35.08H58.67l-7.88-7.89-7.93,7.93H37.41Z"/><path class="cls-4" d="M50.75,76v.06L59.86,67H56.15l-5.37,5.37L45.39,67H41.68Z"/><path class="cls-4" d="M50.75,69.67v.06l9.11-9.1H56.15L50.78,66,45.39,60.6H41.68Z"/><text class="cls-5" transform="translate(74.21 72.83) scale(1.09 1)">STUDENT CHAPTER</text><text class="cls-6" transform="translate(131.55 81.2) scale(1.09 1)"><tspan class="cls-7">cc</tspan><tspan x="4.98" y="0">e</tspan><tspan class="cls-8" x="7.8" y="0">t</tspan><tspan x="9.65" y="0">.acm.o</tspan><tspan class="cls-9" x="25.01" y="0">r</tspan><tspan x="26.81" y="0">g</tspan></text></svg>